<?xml version="1.0" encoding="UTF-8" standalone="no"?>
<svg
   xmlns:dc="http://purl.org/dc/elements/1.1/"
   xmlns:cc="http://creativecommons.org/ns#"
   xmlns:rdf="http://www.w3.org/1999/02/22-rdf-syntax-ns#"
   xmlns:svg="http://www.w3.org/2000/svg"
   xmlns="http://www.w3.org/2000/svg"
   xmlns:sodipodi="http://sodipodi.sourceforge.net/DTD/sodipodi-0.dtd"
   xmlns:inkscape="http://www.inkscape.org/namespaces/inkscape"
   height="60"
   width="60"
   _SVGFile__filename="oldscale/apps/gnome_question.svg"
   version="1.0"
   y="0"
   x="0"
   id="svg1"
   sodipodi:version="0.32"
   inkscape:version="0.91 r13725"
   sodipodi:docname="help.svg">
  <sodipodi:namedview
     id="base"
     pagecolor="#ffffff"
     bordercolor="#666666"
     borderopacity="1.0"
     inkscape:pageopacity="0.0000000"
     inkscape:pageshadow="2"
     inkscape:zoom="2.7008689"
     inkscape:cx="84.07071"
     inkscape:cy="25.336379"
     inkscape:window-width="1024"
     inkscape:window-height="699"
     inkscape:window-x="0"
     inkscape:window-y="27"
     inkscape:current-layer="svg1"
     showgrid="false"
     inkscape:window-maximized="0" />
  <defs
     id="defs3" />
  <path
     style="font-size:12.000000;fill:none;fill-opacity:1.0000000;fill-rule:evenodd;stroke:#ffffff;stroke-width:5.0000000;stroke-opacity:1.0000000;stroke-miterlimit:4.0000000;stroke-dasharray:none;stroke-linejoin:round;stroke-linecap:round;"
     d="M 29.336420,3.1250000 C 31.648027,3.1250000 33.844411,3.4793644 35.847801,4.1618447 C 37.851190,4.8443092 39.615370,5.8270326 41.156442,7.1479547 C 42.697515,8.4688638 43.906066,10.065598 44.764659,11.958911 C 45.645271,13.830208 46.050347,15.951316 46.050347,18.262924 C 46.050347,22.401794 45.031261,25.595247 42.939814,27.884838 C 40.870385,30.152411 38.028736,31.656960 34.396219,32.405477 L 34.396219,33.732639 C 34.396219,34.789377 34.153481,35.738284 33.691166,36.552853 C 33.250867,37.345409 32.597928,37.956858 31.783372,38.419174 C 30.990818,38.859487 30.100280,39.082753 29.087577,39.082753 C 28.074873,39.082753 27.164880,38.859473 26.350309,38.419174 C 25.557755,37.956858 24.946305,37.345409 24.483990,36.552853 C 24.043677,35.738284 23.820409,34.789377 23.820409,33.732639 L 23.820409,28.299575 C 23.820409,27.176796 24.021672,26.281137 24.483990,25.686728 C 24.946305,25.092320 25.523951,24.704138 26.184413,24.483988 C 26.844876,24.263841 27.849615,24.021101 29.170525,23.778934 C 32.604910,23.140490 34.313272,21.412662 34.313272,18.594714 C 34.313272,17.449920 33.827810,16.428284 32.903164,15.525656 C 32.000535,14.601011 30.811438,14.157021 29.336420,14.157021 C 27.971475,14.157021 26.894018,14.416654 26.101464,14.945023 C 25.330930,15.473393 24.590944,16.254851 23.820409,17.267553 C 23.071889,18.258240 22.326784,19.020242 21.622300,19.548611 C 20.939818,20.054962 19.990914,20.295138 18.802082,20.295138 C 17.459156,20.295138 16.328427,19.773313 15.359759,18.760610 C 14.413110,17.725888 13.949653,16.539354 13.949653,15.152392 C 13.949653,12.730709 14.728564,10.592692 16.313658,8.7654324 C 17.898764,6.9381571 19.866756,5.5452492 22.244405,4.5765812 C 24.622052,3.6079146 26.980789,3.1250000 29.336420,3.1250000 z M 29.004629,44.972029 C 30.039349,44.972029 31.005164,45.251118 31.907792,45.801504 C 32.810420,46.351878 33.494586,47.074967 34.022955,47.999613 C 34.573342,48.902242 34.852430,49.887513 34.852430,50.944251 C 34.852430,52.022993 34.573342,53.047190 34.022955,53.971836 C 33.494586,54.874465 32.790964,55.558630 31.866318,56.086997 C 30.963691,56.615368 30.017332,56.875000 29.004629,56.875000 C 27.991925,56.875000 27.026113,56.615368 26.101464,56.086997 C 25.198837,55.558630 24.453743,54.874465 23.903356,53.971836 C 23.374987,53.047190 23.115355,52.022993 23.115355,50.944251 C 23.115355,49.887513 23.374987,48.902242 23.903356,47.999613 C 24.453743,47.074967 25.198837,46.351893 26.101464,45.801504 C 27.004093,45.251118 27.969910,44.972029 29.004629,44.972029 z "
     id="path1710"
     sodipodi:nodetypes="ccccccccccccccccccccccccccccccccccccccccccc" />
  <path
     style="font-size:12.000000;fill:#000000;fill-opacity:1.0000000;fill-rule:evenodd;stroke:none;stroke-width:3.1250019;stroke-opacity:1.0000000"
     d="M 29.336420,3.1250000 C 31.648027,3.1250000 33.844411,3.4793644 35.847801,4.1618447 C 37.851190,4.8443092 39.615370,5.8270326 41.156442,7.1479547 C 42.697515,8.4688638 43.906066,10.065598 44.764659,11.958911 C 45.645271,13.830208 46.050347,15.951316 46.050347,18.262924 C 46.050347,22.401794 45.031261,25.595247 42.939814,27.884838 C 40.870385,30.152411 38.028736,31.656960 34.396219,32.405477 L 34.396219,33.732639 C 34.396219,34.789377 34.153481,35.738284 33.691166,36.552853 C 33.250867,37.345409 32.597928,37.956858 31.783372,38.419174 C 30.990818,38.859487 30.100280,39.082753 29.087577,39.082753 C 28.074873,39.082753 27.164880,38.859473 26.350309,38.419174 C 25.557755,37.956858 24.946305,37.345409 24.483990,36.552853 C 24.043677,35.738284 23.820409,34.789377 23.820409,33.732639 L 23.820409,28.299575 C 23.820409,27.176796 24.021672,26.281137 24.483990,25.686728 C 24.946305,25.092320 25.523951,24.704138 26.184413,24.483988 C 26.844876,24.263841 27.849615,24.021101 29.170525,23.778934 C 32.604910,23.140490 34.313272,21.412662 34.313272,18.594714 C 34.313272,17.449920 33.827810,16.428284 32.903164,15.525656 C 32.000535,14.601011 30.811438,14.157021 29.336420,14.157021 C 27.971475,14.157021 26.894018,14.416654 26.101464,14.945023 C 25.330930,15.473393 24.590944,16.254851 23.820409,17.267553 C 23.071889,18.258240 22.326784,19.020242 21.622300,19.548611 C 20.939818,20.054962 19.990914,20.295138 18.802082,20.295138 C 17.459156,20.295138 16.328427,19.773313 15.359759,18.760610 C 14.413110,17.725888 13.949653,16.539354 13.949653,15.152392 C 13.949653,12.730709 14.728564,10.592692 16.313658,8.7654324 C 17.898764,6.9381571 19.866756,5.5452492 22.244405,4.5765812 C 24.622052,3.6079146 26.980789,3.1250000 29.336420,3.1250000 z M 29.004629,44.972029 C 30.039349,44.972029 31.005164,45.251118 31.907792,45.801504 C 32.810420,46.351878 33.494586,47.074967 34.022955,47.999613 C 34.573342,48.902242 34.852430,49.887513 34.852430,50.944251 C 34.852430,52.022993 34.573342,53.047190 34.022955,53.971836 C 33.494586,54.874465 32.790964,55.558630 31.866318,56.086997 C 30.963691,56.615368 30.017332,56.875000 29.004629,56.875000 C 27.991925,56.875000 27.026113,56.615368 26.101464,56.086997 C 25.198837,55.558630 24.453743,54.874465 23.903356,53.971836 C 23.374987,53.047190 23.115355,52.022993 23.115355,50.944251 C 23.115355,49.887513 23.374987,48.902242 23.903356,47.999613 C 24.453743,47.074967 25.198837,46.351893 26.101464,45.801504 C 27.004093,45.251118 27.969910,44.972029 29.004629,44.972029 z "
     id="path839"
     sodipodi:nodetypes="ccccccccccccccccccccccccccccccccccccccccccc" />
  <metadata
     id="metadata5">
    <rdf:RDF>
      <Work
         rdf:about="">
        <dc:title>Part of the Flat Icon Collection (Thu Aug 26 14:31:40 2004)</dc:title>
        <dc:description />
        <dc:subject>
          <rdf:Bag>
            <rdf:li />
          </rdf:Bag>
        </dc:subject>
        <dc:publisher>
          <Agent
             rdf:about="">
            <dc:title />
          </Agent>
        </dc:publisher>
        <dc:creator>
          <Agent
             rdf:about="">
            <dc:title>Danny Allen</dc:title>
          </Agent>
        </dc:creator>
        <dc:rights>
          <Agent
             rdf:about="">
            <dc:title>Danny Allen</dc:title>
          </Agent>
        </dc:rights>
        <dc:date />
        <dc:format>image/svg+xml</dc:format>
        <dc:type
           rdf:resource="http://purl.org/dc/dcmitype/StillImage" />
        <license
           rdf:resource="http://creativecommons.org/licenses/LGPL/2.1/">
          <dc:date />
        </license>
        <dc:language>en</dc:language>
      </Work>
      <cc:Work
         rdf:about="">
        <dc:format>image/svg+xml</dc:format>
        <dc:type
           rdf:resource="http://purl.org/dc/dcmitype/StillImage" />
        <dc:title></dc:title>
      </cc:Work>
    </rdf:RDF>
  </metadata>
</svg>
