<?xml version="1.0" encoding="UTF-8" standalone="no"?>
<svg
   xmlns:dc="http://purl.org/dc/elements/1.1/"
   xmlns:cc="http://creativecommons.org/ns#"
   xmlns:rdf="http://www.w3.org/1999/02/22-rdf-syntax-ns#"
   xmlns:svg="http://www.w3.org/2000/svg"
   xmlns="http://www.w3.org/2000/svg"
   xmlns:sodipodi="http://sodipodi.sourceforge.net/DTD/sodipodi-0.dtd"
   xmlns:inkscape="http://www.inkscape.org/namespaces/inkscape"
   height="60"
   width="60"
   _SVGFile__filename="oldscale/actions/bookmark_add.svg"
   version="1.0"
   y="0"
   x="0"
   id="svg1"
   sodipodi:version="0.32"
   inkscape:version="0.92.4 (f8dce91, 2019-08-02)"
   sodipodi:docname="phrase_new.svg">
  <sodipodi:namedview
     id="base"
     pagecolor="#ffffff"
     bordercolor="#666666"
     borderopacity="1.0"
     inkscape:pageopacity="0.0000000"
     inkscape:pageshadow="2"
     inkscape:zoom="6.9465337"
     inkscape:cx="47.135455"
     inkscape:cy="12.308433"
     inkscape:window-width="1024"
     inkscape:window-height="698"
     inkscape:window-x="0"
     inkscape:window-y="27"
     inkscape:current-layer="svg1"
     showgrid="false"
     inkscape:window-maximized="0" />
  <defs
     id="defs3" />
  <metadata
     id="metadata8">
    <RDF
       id="RDF9">
      <Work
         about=""
         id="Work10">
        <title
           id="title11">Part of the Flat Icon Collection (Thu Aug 26 14:38:01 2004)</title>
        <description
           id="description13" />
        <subject
           id="subject14">
          <Bag
             id="Bag15">
            <li
               id="li16" />
          </Bag>
        </subject>
        <publisher
           id="publisher17">
          <Agent
             about=""
             id="Agent18">
            <title
               id="title19" />
          </Agent>
        </publisher>
        <creator
           id="creator20">
          <Agent
             about=""
             id="Agent21">
            <title
               id="title22">Danny Allen</title>
          </Agent>
        </creator>
        <rights
           id="rights24">
          <Agent
             about=""
             id="Agent25">
            <title
               id="title26">Danny Allen</title>
          </Agent>
        </rights>
        <date
           id="date28" />
        <format
           id="format29">image/svg+xml</format>
        <type
           id="type31"
           resource="http://purl.org/dc/dcmitype/StillImage" />
        <license
           id="license32"
           resource="http://creativecommons.org/licenses/LGPL/2.1/">
          <date
             id="date33" />
        </license>
        <language
           id="language34">en</language>
      </Work>
    </RDF>
    <rdf:RDF>
      <cc:Work
         rdf:about="">
        <dc:format>image/svg+xml</dc:format>
        <dc:type
           rdf:resource="http://purl.org/dc/dcmitype/StillImage" />
        <dc:title></dc:title>
      </cc:Work>
    </rdf:RDF>
  </metadata>
  <g
     id="g1217"
     transform="matrix(0.654383,0.000000,0.000000,0.654383,1.620212,1.619814)">
    <path
       style="font-size:12.000000;fill:none;fill-opacity:1.0000000;fill-rule:evenodd;stroke:#ffffff;stroke-width:12.416286;stroke-linecap:round;stroke-linejoin:round;stroke-miterlimit:4.0000000;stroke-opacity:1.0000000"
       d="M 6.6825975,4.6879105 C 5.5772035,4.6879105 4.6873015,5.5841475 4.6873015,6.6974115 L 4.6873015,53.302589 C 4.6873015,54.415849 5.5772035,55.312089 6.6825975,55.312089 L 53.317398,55.312089 C 54.422798,55.312089 55.312698,54.415849 55.312698,53.302589 L 55.312698,6.6974115 C 55.312698,5.5841475 54.422798,4.6879105 53.317398,4.6879105 L 6.6825975,4.6879105 z "
       id="path1097" />
    <path
       style="font-size:12.000000;fill:#ffffff;fill-opacity:1.0000000;fill-rule:evenodd;stroke:#000000;stroke-width:4.7754927;stroke-linecap:round;stroke-linejoin:round;stroke-opacity:1.0000000"
       d="M 6.6825990,4.6879110 C 5.5772050,4.6879110 4.6873030,5.5841480 4.6873030,6.6974120 L 4.6873030,53.302590 C 4.6873030,54.415850 5.5772050,55.312090 6.6825990,55.312090 L 53.317400,55.312090 C 54.422800,55.312090 55.312700,54.415850 55.312700,53.302590 L 55.312700,6.6974120 C 55.312700,5.5841480 54.422800,4.6879110 53.317400,4.6879110 L 6.6825990,4.6879110 z "
       id="rect812" />
    <g
       id="g1727"
       transform="matrix(0.987520,0.000000,0.000000,0.987520,0.374403,0.374403)">
      <path
         id="path842"
         style="font-size:12.000000;fill:none;fill-opacity:0.75000000;fill-rule:evenodd;stroke:#000000;stroke-width:4.8358421;stroke-linecap:round;stroke-linejoin:round;stroke-miterlimit:4.0000000;stroke-opacity:1.0000000"
         d="M 13.270927,15.337440 L 46.111203,15.337440"
         transform="translate(0.308933,-0.398908)"
         sodipodi:nodetypes="cc" />
      <path
         id="path1214"
         style="font-size:12.000000;fill:none;fill-opacity:0.75000000;fill-rule:evenodd;stroke:#000000;stroke-width:4.8358421;stroke-linecap:round;stroke-linejoin:round;stroke-miterlimit:4.0000000;stroke-opacity:1.0000000"
         d="M 13.270927,45.460370 L 29.331180,45.460370"
         transform="translate(0.308933,-0.398908)"
         sodipodi:nodetypes="cc" />
      <path
         id="path843"
         style="font-size:12.000000;fill:none;fill-opacity:0.75000000;fill-rule:evenodd;stroke:#000000;stroke-width:4.8358421;stroke-linecap:round;stroke-linejoin:round;stroke-miterlimit:4.0000000;stroke-opacity:1.0000000"
         d="M 13.270927,25.378420 L 46.111203,25.378420"
         transform="translate(0.308933,-0.398908)"
         sodipodi:nodetypes="cc" />
      <path
         id="path844"
         style="font-size:12.000000;fill:none;fill-opacity:0.75000000;fill-rule:evenodd;stroke:#000000;stroke-width:4.8358421;stroke-linecap:round;stroke-linejoin:round;stroke-miterlimit:4.0000000;stroke-opacity:1.0000000"
         d="M 13.270927,35.419400 L 46.111203,35.419400"
         transform="translate(0.308933,-0.398908)"
         sodipodi:nodetypes="cc" />
    </g>
  </g>
  <g
     id="g1828"
     transform="matrix(0.878050,0.000000,0.000000,0.878050,12.72054,12.40802)">
    <path
       style="font-size:12.000000;font-weight:900;fill:none;fill-opacity:1.0000000;stroke:#ffffff;stroke-width:5.6876540;stroke-linecap:round;stroke-linejoin:round;stroke-miterlimit:4.0000000;stroke-opacity:1.0000000;font-family:VAG Rounded Black SSi;"
       d="M 25.296240,25.554220 L 25.296240,14.851720 C 25.296240,13.354540 25.705630,12.138080 26.524400,11.202340 C 27.343170,10.243210 28.512840,9.7636420 30.033410,9.7636420 C 31.553990,9.7636420 32.723660,10.243210 33.542430,11.202340 C 34.384590,12.138080 34.805680,13.354540 34.805680,14.851720 L 34.805680,25.554220 L 45.367820,25.554220 C 46.911780,25.554220 48.128240,25.975300 49.017190,26.817460 C 49.929540,27.636230 50.385710,28.794210 50.385710,30.291390 C 50.385710,31.811960 49.929540,32.993330 49.017190,33.835490 C 48.128240,34.677660 46.911780,35.098740 45.367820,35.098740 L 34.805680,35.098740 L 34.805680,45.766150 C 34.805680,47.286720 34.384590,48.514880 33.542430,49.450620 C 32.700270,50.386360 31.530590,50.854220 30.033410,50.854220 C 28.536230,50.854220 27.366560,50.386360 26.524400,49.450620 C 25.705630,48.514880 25.296240,47.286720 25.296240,45.766150 L 25.296240,35.098740 L 14.734100,35.098740 C 13.236920,35.098740 12.020460,34.642570 11.084730,33.730220 C 10.172380,32.794490 9.7162080,31.648210 9.7162080,30.291390 C 9.7162080,28.794210 10.160680,27.636230 11.049640,26.817460 C 11.961980,25.975300 13.190130,25.554220 14.734100,25.554220 L 25.296240,25.554220 z "
       id="path1206"
       transform="matrix(0.997649,0.000000,0.000000,1.004750,1.969380e-2,-0.452898)" />
    <path
       style="font-size:12.000000;font-weight:900;fill:#000000;fill-opacity:1.0000000;stroke-width:1.0000000;font-family:VAG Rounded Black SSi"
       d="M 25.296240,25.554220 L 25.296240,14.851720 C 25.296240,13.354540 25.705630,12.138080 26.524400,11.202340 C 27.343170,10.243210 28.512840,9.7636420 30.033410,9.7636420 C 31.553990,9.7636420 32.723660,10.243210 33.542430,11.202340 C 34.384590,12.138080 34.805680,13.354540 34.805680,14.851720 L 34.805680,25.554220 L 45.367820,25.554220 C 46.911780,25.554220 48.128240,25.975300 49.017190,26.817460 C 49.929540,27.636230 50.385710,28.794210 50.385710,30.291390 C 50.385710,31.811960 49.929540,32.993330 49.017190,33.835490 C 48.128240,34.677660 46.911780,35.098740 45.367820,35.098740 L 34.805680,35.098740 L 34.805680,45.766150 C 34.805680,47.286720 34.384590,48.514880 33.542430,49.450620 C 32.700270,50.386360 31.530590,50.854220 30.033410,50.854220 C 28.536230,50.854220 27.366560,50.386360 26.524400,49.450620 C 25.705630,48.514880 25.296240,47.286720 25.296240,45.766150 L 25.296240,35.098740 L 14.734100,35.098740 C 13.236920,35.098740 12.020460,34.642570 11.084730,33.730220 C 10.172380,32.794490 9.7162080,31.648210 9.7162080,30.291390 C 9.7162080,28.794210 10.160680,27.636230 11.049640,26.817460 C 11.961980,25.975300 13.190130,25.554220 14.734100,25.554220 L 25.296240,25.554220 z "
       id="path838"
       transform="matrix(0.997649,0.000000,0.000000,1.004750,1.969380e-2,-0.452898)" />
  </g>
</svg>
