<?xml version="1.0" encoding="UTF-8" standalone="no"?>
<svg
   xmlns:dc="http://purl.org/dc/elements/1.1/"
   xmlns:cc="http://creativecommons.org/ns#"
   xmlns:rdf="http://www.w3.org/1999/02/22-rdf-syntax-ns#"
   xmlns:svg="http://www.w3.org/2000/svg"
   xmlns="http://www.w3.org/2000/svg"
   xmlns:xlink="http://www.w3.org/1999/xlink"
   id="svg1"
   x="0"
   y="0"
   version="1.0"
   _SVGFile__filename="oldscale/filesystems/folder_grey_open.svg"
   width="60"
   height="60">
  <defs
     id="defs3">
    <linearGradient
       id="linearGradient900">
      <stop
         style="stop-color: #000000;stop-opacity: 1.0;"
         id="stop901"
         offset="0" />
      <stop
         style="stop-color:#ffffff;stop-opacity:1;"
         id="stop902"
         offset="1" />
    </linearGradient>
    <linearGradient
       xlink:href="#linearGradient900"
       id="linearGradient903" />
    <linearGradient
       xlink:href="#linearGradient900"
       id="linearGradient904" />
    <linearGradient
       xlink:href="#linearGradient900"
       id="linearGradient905" />
    <linearGradient
       xlink:href="#linearGradient900"
       id="linearGradient906" />
    <linearGradient
       xlink:href="#linearGradient900"
       id="linearGradient907" />
  </defs>
  <path
     style="font-size:12.000000;fill:none;fill-opacity:1.0000000;fill-rule:evenodd;stroke:#ffffff;stroke-width:8.1250000;stroke-linejoin:round;stroke-miterlimit:4.0000000;stroke-opacity:1.0000000;"
     d="M 5.6562500,8.3750000 C 5.1457100,8.3750001 4.7187500,8.8019610 4.7187500,9.3125000 L 4.6875000,50.000000 C 4.6874970,50.857408 5.3613390,51.562500 6.2187500,51.562500 C 6.2295310,51.563888 6.2390540,51.561340 6.2500000,51.562500 C 6.3040010,51.568222 6.3171090,51.625000 6.3750000,51.625000 L 42.562500,51.625000 C 43.419910,51.625000 44.347880,50.956286 44.656250,50.156250 L 55.218750,22.781250 C 55.527120,21.981206 55.076160,21.343750 54.218750,21.343750 L 43.937500,21.343750 L 43.937500,14.125000 C 43.937500,13.267582 43.263660,12.562500 42.406250,12.562500 L 28.125000,12.562500 L 28.125000,9.3125000 C 28.125000,8.8019609 27.698040,8.3750000 27.187500,8.3750000 L 5.6562500,8.3750000 z "
     id="path1103" />
  <path
     style="font-size:12.000000;fill:#ffffff;fill-opacity:1.0000000;fill-rule:evenodd;stroke:#000000;stroke-width:3.1249983;stroke-linejoin:round;stroke-opacity:1.0000000"
     d="M 5.3564493,9.8634915 C 4.8459107,9.8634915 4.4166181,10.292784 4.4166181,10.803323 L 4.3863010,51.488921 C 4.3863010,52.346328 5.0750636,53.035094 5.9324749,53.035094 L 42.100820,53.035094 C 42.958227,53.035094 43.646994,52.346328 43.646994,51.488921 L 43.646994,15.593433 C 43.646994,14.736015 42.958227,14.047258 42.100820,14.047258 L 27.821449,14.047258 L 27.821449,10.803323 C 27.821449,10.292784 27.392158,9.8634915 26.881617,9.8634915 L 5.3564493,9.8634915 z "
     id="path938"
     transform="translate(0.298640,-1.477342)" />
  <path
     style="font-size:12.000000;fill:#ffffff;fill-opacity:1.0000000;fill-rule:evenodd;stroke:#000000;stroke-width:3.1249995;stroke-linejoin:round;stroke-opacity:1.0000000"
     d="M 17.754406,22.810815 C 16.896989,22.810815 15.958477,23.454888 15.650106,24.254932 L 5.0920535,51.647074 C 4.7836870,52.447110 5.2256919,53.091192 6.0831089,53.091192 L 42.255905,53.091192 C 43.113312,53.091192 44.051829,52.447110 44.360195,51.647074 L 54.918248,24.254932 C 55.226618,23.454888 54.784609,22.810815 53.927202,22.810815 L 17.754406,22.810815 z "
     id="rect922"
     transform="translate(0.298640,-1.477342)" />
  <metadata
     id="metadata15">
    <RDF
       id="RDF16">
      <Work
         about=""
         id="Work17">
        <title
           id="title18">Part of the Flat Icon Collection (Thu Aug 26 14:40:13 2004)</title>
        <description
           id="description20" />
        <subject
           id="subject21">
          <Bag
             id="Bag22">
            <li
               id="li23" />
          </Bag>
        </subject>
        <publisher
           id="publisher24">
          <Agent
             about=""
             id="Agent25">
            <title
               id="title26" />
          </Agent>
        </publisher>
        <creator
           id="creator27">
          <Agent
             about=""
             id="Agent28">
            <title
               id="title29">Danny Allen</title>
          </Agent>
        </creator>
        <rights
           id="rights31">
          <Agent
             about=""
             id="Agent32">
            <title
               id="title33">Danny Allen</title>
          </Agent>
        </rights>
        <date
           id="date35" />
        <format
           id="format36">image/svg+xml</format>
        <type
           id="type38"
           resource="http://purl.org/dc/dcmitype/StillImage" />
        <license
           id="license39"
           resource="http://creativecommons.org/licenses/LGPL/2.1/">
          <date
             id="date40" />
        </license>
        <language
           id="language41">en</language>
      </Work>
    </RDF>
    <rdf:RDF>
      <cc:Work
         rdf:about="">
        <dc:format>image/svg+xml</dc:format>
        <dc:type
           rdf:resource="http://purl.org/dc/dcmitype/StillImage" />
        <dc:title></dc:title>
      </cc:Work>
    </rdf:RDF>
  </metadata>
</svg>
