<?xml version="1.0" encoding="UTF-8" standalone="no"?>
<svg
   xmlns:dc="http://purl.org/dc/elements/1.1/"
   xmlns:cc="http://creativecommons.org/ns#"
   xmlns:rdf="http://www.w3.org/1999/02/22-rdf-syntax-ns#"
   xmlns:svg="http://www.w3.org/2000/svg"
   xmlns="http://www.w3.org/2000/svg"
   height="60"
   width="60"
   _SVGFile__filename="oldscale/actions/bookmark_add.svg"
   version="1.0"
   y="0"
   x="0"
   id="svg1">
  <defs
     id="defs3" />
  <metadata
     id="metadata8">
    <RDF
       id="RDF9">
      <Work
         id="Work10"
         about="">
        <title
           id="title11">Part of the Flat Icon Collection (Thu Aug 26 14:38:01 2004)</title>
        <description
           id="description13" />
        <subject
           id="subject14">
          <Bag
             id="Bag15">
            <li
               id="li16" />
          </Bag>
        </subject>
        <publisher
           id="publisher17">
          <Agent
             id="Agent18"
             about="">
            <title
               id="title19" />
          </Agent>
        </publisher>
        <creator
           id="creator20">
          <Agent
             id="Agent21"
             about="">
            <title
               id="title22">Danny Allen</title>
          </Agent>
        </creator>
        <rights
           id="rights24">
          <Agent
             id="Agent25"
             about="">
            <title
               id="title26">Danny Allen</title>
          </Agent>
        </rights>
        <date
           id="date28" />
        <format
           id="format29">image/svg+xml</format>
        <type
           resource="http://purl.org/dc/dcmitype/StillImage"
           id="type31" />
        <license
           resource="http://creativecommons.org/licenses/LGPL/2.1/"
           id="license32">
          <date
             id="date33" />
        </license>
        <language
           id="language34">en</language>
      </Work>
    </RDF>
    <rdf:RDF>
      <cc:Work
         rdf:about="">
        <dc:format>image/svg+xml</dc:format>
        <dc:type
           rdf:resource="http://purl.org/dc/dcmitype/StillImage" />
        <dc:title></dc:title>
      </cc:Work>
    </rdf:RDF>
  </metadata>
  <path
     transform="matrix(0.654383,0.000000,0.000000,0.654383,1.620212,1.619814)"
     id="path1097"
     d="M 6.6825975,4.6879105 C 5.5772035,4.6879105 4.6873015,5.5841475 4.6873015,6.6974115 L 4.6873015,53.302589 C 4.6873015,54.415849 5.5772035,55.312089 6.6825975,55.312089 L 53.317398,55.312089 C 54.422798,55.312089 55.312698,54.415849 55.312698,53.302589 L 55.312698,6.6974115 C 55.312698,5.5841475 54.422798,4.6879105 53.317398,4.6879105 L 6.6825975,4.6879105 z "
     style="font-size:12.000000;fill:none;fill-opacity:1.0000000;fill-rule:evenodd;stroke:#ffffff;stroke-width:12.416286;stroke-linecap:round;stroke-linejoin:round;stroke-miterlimit:4.0000000;stroke-opacity:1.0000000;" />
  <path
     transform="matrix(0.654383,0.000000,0.000000,0.654383,1.620212,1.619814)"
     id="rect812"
     d="M 6.6825990,4.6879110 C 5.5772050,4.6879110 4.6873030,5.5841480 4.6873030,6.6974120 L 4.6873030,53.302590 C 4.6873030,54.415850 5.5772050,55.312090 6.6825990,55.312090 L 53.317400,55.312090 C 54.422800,55.312090 55.312700,54.415850 55.312700,53.302590 L 55.312700,6.6974120 C 55.312700,5.5841480 54.422800,4.6879110 53.317400,4.6879110 L 6.6825990,4.6879110 z "
     style="font-size:12.000000;fill:#ffffff;fill-opacity:1.0000000;fill-rule:evenodd;stroke:#000000;stroke-width:4.7754927;stroke-linecap:round;stroke-linejoin:round;stroke-opacity:1.0000000;" />
  <path
     d="M 10.640746,11.518347 L 31.862658,11.518347"
     style="font-size:12.000000;fill:none;fill-opacity:0.75000000;fill-rule:evenodd;stroke:#000000;stroke-width:3.1249986;stroke-linecap:round;stroke-linejoin:round;stroke-miterlimit:4.0000000;stroke-opacity:1.0000000"
     id="path842" />
  <path
     transform="matrix(0.646216,0.000000,0.000000,0.646216,2.064861,1.607046)"
     d="M 13.270927,45.460370 L 29.331180,45.460370"
     style="font-size:12.000000;fill:none;fill-opacity:0.75000000;fill-rule:evenodd;stroke:#000000;stroke-width:4.8358421;stroke-linecap:round;stroke-linejoin:round;stroke-miterlimit:4.0000000;stroke-opacity:1.0000000;"
     id="path1214" />
  <path
     d="M 10.640746,18.006985 L 31.862658,18.006985"
     style="font-size:12.000000;fill:none;fill-opacity:0.75000000;fill-rule:evenodd;stroke:#000000;stroke-width:3.1249986;stroke-linecap:round;stroke-linejoin:round;stroke-miterlimit:4.0000000;stroke-opacity:1.0000000"
     id="path843" />
  <path
     id="path844"
     d="M 10.500000 22.937500 C 9.6370551 22.980647 8.9568528 23.699555 9.0000000 24.562500 C 9.0431472 25.425445 9.7933051 26.105647 10.656250 26.062500 L 22.093750 26.062500 L 22.093750 22.937500 L 10.656250 22.937500 C 10.604199 22.934894 10.552051 22.934894 10.500000 22.937500 z "
     style="font-size:12.000000;fill:#000000;fill-opacity:1.0000000;fill-rule:evenodd;stroke:none;stroke-width:3.1249986;stroke-linecap:round;stroke-linejoin:round;stroke-miterlimit:4.0000000;stroke-opacity:1.0000000" />
  <g
     transform="matrix(0.868636,0.000000,0.000000,0.868636,12.69027,7.268619)"
     id="g2463">
    <path
       id="path1206"
       d="M 11.650750,22.747059 C 11.266270,22.747061 10.963250,23.081327 10.963250,23.465809 L 10.932000,54.090809 C 10.931998,54.736516 11.442541,55.278309 12.088250,55.278309 L 12.150750,55.278309 C 12.178232,55.280199 12.184506,55.309559 12.213250,55.309559 L 39.463250,55.309559 C 40.108960,55.309559 40.793520,54.818309 41.025750,54.215809 L 48.994500,33.590809 C 49.226730,32.988303 48.890210,32.497059 48.244500,32.497059 L 40.494500,32.497059 L 40.494500,27.059559 C 40.494500,26.413844 39.983960,25.903309 39.338250,25.903309 L 28.588250,25.903309 L 28.588250,23.465809 C 28.588251,23.081328 28.253984,22.747059 27.869500,22.747059 L 11.650750,22.747059 z "
       style="font-size:12.000000;fill:none;fill-opacity:1.0000000;fill-rule:evenodd;stroke:#ffffff;stroke-width:9.3537588;stroke-linejoin:round;stroke-miterlimit:4.0000000;stroke-opacity:1.0000000" />
    <g
       transform="matrix(0.753091,0.000000,0.000000,0.753091,7.401770,16.43558)"
       id="g1198">
      <path
         transform="translate(0.298640,-1.477342)"
         id="path938"
         d="M 5.3564493,9.8634915 C 4.8459107,9.8634915 4.4166181,10.292784 4.4166181,10.803323 L 4.3863010,51.488921 C 4.3863010,52.346328 5.0750636,53.035094 5.9324749,53.035094 L 42.100820,53.035094 C 42.958227,53.035094 43.646994,52.346328 43.646994,51.488921 L 43.646994,15.593433 C 43.646994,14.736015 42.958227,14.047258 42.100820,14.047258 L 27.821449,14.047258 L 27.821449,10.803323 C 27.821449,10.292784 27.392158,9.8634915 26.881617,9.8634915 L 5.3564493,9.8634915 z "
         style="stroke-opacity:1.0000000;stroke-linejoin:round;stroke-width:4.7771087;stroke:#000000;fill-rule:evenodd;fill-opacity:1.0000000;fill:#ffffff;font-size:12.000000" />
      <path
         transform="translate(0.298640,-1.477342)"
         id="rect922"
         d="M 17.754406,22.810815 C 16.896989,22.810815 15.958477,23.454888 15.650106,24.254932 L 5.0920535,51.647074 C 4.7836870,52.447110 5.2256919,53.091192 6.0831089,53.091192 L 42.255905,53.091192 C 43.113312,53.091192 44.051829,52.447110 44.360195,51.647074 L 54.918248,24.254932 C 55.226618,23.454888 54.784609,22.810815 53.927202,22.810815 L 17.754406,22.810815 z "
         style="stroke-opacity:1.0000000;stroke-linejoin:round;stroke-width:4.7771101;stroke:#000000;fill-rule:evenodd;fill-opacity:1.0000000;fill:#ffffff;font-size:12.000000" />
    </g>
  </g>
</svg>
