<?xml version="1.0" encoding="UTF-8" standalone="no"?>
<svg
   xmlns:dc="http://purl.org/dc/elements/1.1/"
   xmlns:cc="http://creativecommons.org/ns#"
   xmlns:rdf="http://www.w3.org/1999/02/22-rdf-syntax-ns#"
   xmlns:svg="http://www.w3.org/2000/svg"
   xmlns="http://www.w3.org/2000/svg"
   xmlns:xlink="http://www.w3.org/1999/xlink"
   xmlns:sodipodi="http://sodipodi.sourceforge.net/DTD/sodipodi-0.dtd"
   xmlns:inkscape="http://www.inkscape.org/namespaces/inkscape"
   sodipodi:docname="think.svg"
   inkscape:version="0.91 r13725"
   sodipodi:version="0.32"
   id="svg1"
   x="0"
   y="0"
   version="1.0"
   _SVGFile__filename="oldscale/apps/gabber.svg"
   width="60"
   height="60">
  <sodipodi:namedview
     inkscape:current-layer="svg1"
     inkscape:window-y="27"
     inkscape:window-x="0"
     inkscape:window-height="691"
     inkscape:window-width="1020"
     inkscape:cy="18.003694"
     inkscape:cx="-6.8960248"
     inkscape:zoom="4.7889612"
     inkscape:pageshadow="2"
     inkscape:pageopacity="0.0"
     borderopacity="1.0"
     bordercolor="#666666"
     pagecolor="#ffffff"
     id="base"
     showgrid="false"
     inkscape:window-maximized="0" />
  <defs
     id="defs3">
    <linearGradient
       id="linearGradient900">
      <stop
         offset="0"
         id="stop901"
         style="stop-color: #000000;stop-opacity: 1.0;" />
      <stop
         offset="1"
         id="stop902"
         style="stop-color:#ffffff;stop-opacity:1;" />
    </linearGradient>
    <linearGradient
       id="linearGradient903"
       xlink:href="#linearGradient900" />
    <linearGradient
       id="linearGradient904"
       xlink:href="#linearGradient900" />
    <linearGradient
       id="linearGradient905"
       xlink:href="#linearGradient900" />
    <linearGradient
       id="linearGradient906"
       xlink:href="#linearGradient900" />
    <linearGradient
       id="linearGradient907"
       xlink:href="#linearGradient900" />
  </defs>
  <g
     style="stroke:#ffffff;stroke-opacity:1.0000000;"
     transform="translate(-50.00000,0.000000)"
     id="g1767">
    <path
       id="path1749"
       d="M 79.968750,4.6875000 C 72.804997,4.7402816 66.892176,10.307452 65.593750,16.375000 C 64.662360,21.620059 65.775146,26.962120 67.156250,32.062500 C 67.886142,34.380028 68.738876,36.690846 69.812500,38.906250 C 68.657452,39.764795 67.875000,41.100125 67.875000,42.656250 L 67.875000,46.187500 C 67.874998,48.801662 69.979599,50.906250 72.593750,50.906250 L 87.406250,50.906250 C 90.020403,50.906251 92.125000,48.801661 92.125000,46.187500 L 92.125000,42.656250 C 92.124999,41.090880 91.323042,39.763704 90.156250,38.906250 C 91.879249,34.962247 92.881319,30.743003 93.937500,26.625000 C 95.154200,21.448844 95.366004,15.594000 91.906250,11.031250 C 89.324612,7.4327401 84.901045,4.5831159 79.968750,4.6875000 z "
       style="font-size:12.000000;fill:none;fill-opacity:1.0000000;fill-rule:evenodd;stroke:#ffffff;stroke-width:8.1250000;stroke-linecap:round;stroke-linejoin:round;stroke-miterlimit:4.0000000;stroke-opacity:1.0000000;" />
    <path
       transform="matrix(0.943737,0.000000,0.000000,0.943737,51.78073,1.354823)"
       id="path1751"
       d="M 35.627460,52.111060 C 35.627460,55.271730 33.062290,57.836900 29.901620,57.836900 C 26.740950,57.836900 24.175780,55.271730 24.175780,52.111060"
       style="font-size:12.000000;fill:none;fill-opacity:1.0000000;fill-rule:evenodd;stroke:#ffffff;stroke-width:7.2848687;stroke-linejoin:round;stroke-miterlimit:4.0000000;stroke-opacity:1.0000000;" />
  </g>
  <path
     sodipodi:nodetypes="cccccccc"
     transform="matrix(0.943737,0.000000,0.000000,0.943737,1.490182,1.354823)"
     id="path866"
     d="M 30.189960,3.5341542 C 22.599121,3.5900824 16.328927,9.4878583 14.953093,15.917137 C 13.966176,21.474891 15.142261,27.139730 16.605703,32.544180 C 17.639851,35.827766 18.708468,39.174289 20.590116,42.156734 L 38.807362,43.940880 C 42.099265,38.647968 43.468095,32.633523 44.968355,26.784078 C 46.257593,21.299333 46.500640,15.088870 42.834624,10.254101 C 40.099080,6.4410581 35.416305,3.4235470 30.189960,3.5341542 z "
     style="stroke-opacity:1;stroke-linejoin:round;stroke-linecap:round;stroke-width:3.3113053;stroke:#000000;fill-rule:evenodd;fill-opacity:1;fill:#ffffff;font-size:12" />
  <g
     id="g1570"
     transform="matrix(0.943737,0.000000,0.000000,0.943737,1.780736,1.354823)"
     style="font-size:12.000000;">
    <path
       id="path859"
       d="M 35.627460,52.111060 C 35.627460,55.271730 33.062290,57.836900 29.901620,57.836900 C 26.740950,57.836900 24.175780,55.271730 24.175780,52.111060"
       style="fill:#9da1a6;fill-opacity:1.0000000;fill-rule:evenodd;stroke:#9da1a6;stroke-width:1.9867834;stroke-linejoin:round;stroke-opacity:1.0000000" />
    <path
       id="rect858"
       transform="translate(0.000000,-8.270661)"
       d="M 22.050280,47.021420 C 19.280280,47.021420 17.050280,49.251420 17.050280,52.021420 L 17.050280,55.763440 C 17.050280,58.533450 19.280280,60.763440 22.050280,60.763440 L 37.752950,60.763440 C 40.522950,60.763440 42.752950,58.533450 42.752950,55.763440 L 42.752950,52.021420 C 42.752950,49.251420 40.522950,47.021420 37.752950,47.021420 L 22.050280,47.021420 z "
       style="stroke-opacity:1.0000000;stroke-linejoin:round;stroke-width:3.3113055;stroke:#000000;fill-rule:evenodd;fill-opacity:1.0000000;fill:#babec3" />
    <path
       id="path860"
       d="M 18.449940,40.913860 L 42.371230,43.840400 M 17.304770,44.476600 L 42.116750,47.784870 M 18.068210,48.421080 L 40.208140,51.474860"
       style="fill:none;fill-opacity:0.75000000;fill-rule:evenodd;stroke:#000000;stroke-width:1.9867834;stroke-linecap:round;stroke-linejoin:round;stroke-opacity:1.0000000" />
  </g>
  <path
     transform="matrix(0.943737,0.000000,0.000000,0.943737,1.490182,1.835151)"
     d="M 25.957150,37.860080 L 23.539570,23.736330 M 34.736780,37.987320 L 36.518150,24.754260"
     style="font-size:12.000000;fill:none;fill-opacity:0.75000000;fill-rule:evenodd;stroke:#000000;stroke-width:2.6490431;stroke-linecap:round;stroke-linejoin:round;stroke-opacity:1.0000000;stroke-miterlimit:4.0000000;stroke-dasharray:none;"
     id="path862" />
  <path
     transform="matrix(0.943737,0.000000,0.000000,0.943737,1.490182,1.835151)"
     d="M 22.647000,26.196650 C 22.124230,25.896920 21.754760,25.421950 21.464320,24.902880 C 20.848720,23.684740 20.791610,22.579540 21.435830,21.349760 C 22.508690,19.604450 24.132030,18.161930 26.176380,17.740550 C 28.099270,17.564660 29.367510,18.485870 29.383270,20.423270 C 29.325760,21.747160 29.017810,23.124540 27.939320,23.988780 C 26.543380,24.862790 24.623560,24.449060 24.343590,22.690550 C 24.261970,21.237400 25.326890,20.470570 26.624750,20.126610 C 28.048680,19.841520 29.651350,19.948490 30.682430,21.085730 C 31.239070,21.824850 31.391580,22.722770 31.206920,23.622630 C 30.752760,25.164240 28.495410,25.182770 28.078380,23.599330 C 27.854990,22.118020 28.895090,21.217440 30.141210,20.659300 C 31.643890,20.080520 33.740400,19.630570 34.956960,20.999420 C 35.528200,21.869230 35.527880,23.040330 35.088430,23.970520 C 34.085140,25.587550 32.079970,24.505480 32.042170,22.905660 C 32.109900,21.650620 32.893570,20.866270 34.062530,20.499450 C 35.408370,20.202340 36.737420,20.511280 37.596830,21.629330 C 38.103100,22.375120 38.311050,23.191440 38.300850,24.087240 C 38.290450,24.345500 38.267870,24.601120 38.236830,24.857680 L 35.949510,24.752110 C 35.979590,24.526080 36.002850,24.300790 36.014890,24.073050 C 36.030920,23.400280 35.904080,22.771740 35.518310,22.210740 C 35.442860,22.112440 35.163790,21.762550 35.060080,21.760050 C 34.541090,21.791910 34.337300,22.471610 34.310660,22.885300 C 34.316970,23.126500 34.378210,23.299060 34.451800,23.519810 C 34.514570,23.708070 34.091080,23.329140 33.893210,23.313780 C 33.553930,23.287450 32.664130,23.795500 32.900080,23.550290 C 33.237120,23.028910 33.238370,22.162550 32.921950,21.631830 C 32.659220,21.263750 31.869060,21.610930 31.471610,21.757360 C 30.772770,22.057750 30.193740,22.536910 30.334620,23.374480 C 30.394780,23.579440 28.771370,23.878210 28.935570,23.435550 C 29.082810,22.868640 29.008300,22.218210 28.660490,21.738910 C 28.354080,21.374500 27.967620,21.325140 27.512100,21.401420 C 26.905470,21.535750 26.575680,21.924270 26.600450,22.562120 C 26.613180,22.646220 26.820970,23.077360 26.808670,23.114220 C 26.739930,23.320340 25.952050,23.193780 26.156880,23.121300 C 26.989390,22.613640 27.145900,21.313190 27.169630,20.439250 C 27.159570,20.142100 26.982930,19.096830 26.813070,19.056560 C 25.432860,19.138410 24.149800,20.649430 23.505780,21.733200 C 23.040930,22.681940 23.128850,23.533570 23.620910,24.449870 C 23.747400,24.660410 24.212260,25.113320 24.168520,25.088670 L 22.647000,26.196650 z "
     style="font-size:12.000000;fill:#000000;fill-opacity:1.0000000;stroke-width:1.0000000;"
     id="path863" />
  <metadata
     id="metadata20">
    <RDF
       id="RDF21">
      <Work
         id="Work22"
         about="">
        <title
           id="title23">Part of the Flat Icon Collection (Thu Aug 26 14:31:40 2004)</title>
        <description
           id="description25" />
        <subject
           id="subject26">
          <Bag
             id="Bag27">
            <li
               id="li28" />
          </Bag>
        </subject>
        <publisher
           id="publisher29">
          <Agent
             id="Agent30"
             about="">
            <title
               id="title31" />
          </Agent>
        </publisher>
        <creator
           id="creator32">
          <Agent
             id="Agent33"
             about="">
            <title
               id="title34">Danny Allen</title>
          </Agent>
        </creator>
        <rights
           id="rights36">
          <Agent
             id="Agent37"
             about="">
            <title
               id="title38">Danny Allen</title>
          </Agent>
        </rights>
        <date
           id="date40" />
        <format
           id="format41">image/svg+xml</format>
        <type
           resource="http://purl.org/dc/dcmitype/StillImage"
           id="type43" />
        <license
           resource="http://creativecommons.org/licenses/LGPL/2.1/"
           id="license44">
          <date
             id="date45" />
        </license>
        <language
           id="language46">en</language>
      </Work>
    </RDF>
    <rdf:RDF>
      <cc:Work
         rdf:about="">
        <dc:format>image/svg+xml</dc:format>
        <dc:type
           rdf:resource="http://purl.org/dc/dcmitype/StillImage" />
        <dc:title></dc:title>
      </cc:Work>
    </rdf:RDF>
  </metadata>
</svg>
