<?xml version="1.0" encoding="UTF-8" standalone="no"?>
<svg
   xmlns:dc="http://purl.org/dc/elements/1.1/"
   xmlns:cc="http://creativecommons.org/ns#"
   xmlns:rdf="http://www.w3.org/1999/02/22-rdf-syntax-ns#"
   xmlns:svg="http://www.w3.org/2000/svg"
   xmlns="http://www.w3.org/2000/svg"
   xmlns:sodipodi="http://sodipodi.sourceforge.net/DTD/sodipodi-0.dtd"
   xmlns:inkscape="http://www.inkscape.org/namespaces/inkscape"
   height="60"
   width="60"
   _SVGFile__filename="oldscale/apps/kservices.svg"
   version="1.0"
   y="0"
   x="0"
   id="svg1"
   sodipodi:version="0.32"
   inkscape:version="0.91 r13725"
   sodipodi:docname="think.svg">
  <sodipodi:namedview
     id="base"
     pagecolor="#ffffff"
     bordercolor="#666666"
     borderopacity="1.0"
     inkscape:pageopacity="0.0"
     inkscape:pageshadow="2"
     inkscape:zoom="2.4944371"
     inkscape:cx="155.47322"
     inkscape:cy="3.4549657"
     inkscape:window-width="1020"
     inkscape:window-height="691"
     inkscape:window-x="0"
     inkscape:window-y="27"
     inkscape:current-layer="svg1"
     showgrid="false"
     inkscape:window-maximized="0" />
  <defs
     id="defs3" />
  <path
     id="path1087"
     style="font-size:12.000000;fill:none;fill-opacity:1.0000000;fill-rule:evenodd;stroke:#ffffff;stroke-width:5.0000000;stroke-linejoin:round;stroke-miterlimit:4.0000000;stroke-opacity:1.0000000;"
     d="M 9.0694840,45.150561 L 13.953288,50.266928 L 21.860356,44.917974 L 28.139520,47.708745 L 30.232560,56.875000 L 36.976860,56.813053 L 38.837340,47.408031 L 45.116490,44.917974 L 53.023560,50.034372 L 56.744560,44.917974 L 47.771010,36.449449 C 24.770909,57.545172 4.8952870,25.031501 24.651105,11.429138 L 24.651077,6.5453330 L 22.325484,7.7081373 L 15.116074,3.1250002 L 10.135938,7.2147665 L 14.650955,14.917532 L 12.092784,21.196682 L 3.2826270,22.660210 L 3.2554380,29.336346 L 12.325356,31.661973 L 14.825386,37.766744 L 9.0694840,45.150561 z " />
  <path
     id="path705"
     style="font-size:12.000000;fill:#000000;fill-opacity:1.0000000;fill-rule:evenodd;stroke-width:1.2844000"
     d="M 9.0694840,45.150561 L 13.953288,50.266928 L 21.860356,44.917974 L 28.139524,47.708745 L 30.232561,56.875000 L 36.976855,56.813053 L 38.837338,47.408031 L 45.116488,44.917974 L 53.023564,50.034372 L 56.744562,44.917974 L 47.771006,36.449449 C 24.770909,57.545172 4.8952874,25.031501 24.651105,11.429138 L 24.651077,6.5453330 L 22.325484,7.7081373 L 15.116074,3.1250002 L 10.135938,7.2147665 L 14.650955,14.917532 L 12.092784,21.196682 L 3.2826266,22.660210 L 3.2554378,29.336346 L 12.325356,31.661973 L 14.825386,37.766744 L 9.0694840,45.150561 z " />
  <metadata
     id="metadata5">
    <rdf:RDF>
      <Work
         rdf:about="">
        <dc:title>Part of the Flat Icon Collection (Thu Aug 26 14:31:40 2004)</dc:title>
        <dc:description />
        <dc:subject>
          <rdf:Bag>
            <rdf:li />
          </rdf:Bag>
        </dc:subject>
        <dc:publisher>
          <Agent
             rdf:about="">
            <dc:title />
          </Agent>
        </dc:publisher>
        <dc:creator>
          <Agent
             rdf:about="">
            <dc:title>Danny Allen</dc:title>
          </Agent>
        </dc:creator>
        <dc:rights>
          <Agent
             rdf:about="">
            <dc:title>Danny Allen</dc:title>
          </Agent>
        </dc:rights>
        <dc:date />
        <dc:format>image/svg+xml</dc:format>
        <dc:type
           rdf:resource="http://purl.org/dc/dcmitype/StillImage" />
        <license
           rdf:resource="http://creativecommons.org/licenses/LGPL/2.1/">
          <dc:date />
        </license>
        <dc:language>en</dc:language>
      </Work>
      <cc:Work
         rdf:about="">
        <dc:format>image/svg+xml</dc:format>
        <dc:type
           rdf:resource="http://purl.org/dc/dcmitype/StillImage" />
        <dc:title></dc:title>
      </cc:Work>
    </rdf:RDF>
  </metadata>
</svg>
