<?xml version="1.0" encoding="UTF-8" standalone="no"?>
<svg
   xmlns:dc="http://purl.org/dc/elements/1.1/"
   xmlns:cc="http://creativecommons.org/ns#"
   xmlns:rdf="http://www.w3.org/1999/02/22-rdf-syntax-ns#"
   xmlns:svg="http://www.w3.org/2000/svg"
   xmlns="http://www.w3.org/2000/svg"
   xmlns:sodipodi="http://sodipodi.sourceforge.net/DTD/sodipodi-0.dtd"
   xmlns:inkscape="http://www.inkscape.org/namespaces/inkscape"
   sodipodi:docname="view-navigator.svg"
   inkscape:version="0.91 r13725"
   sodipodi:version="0.32"
   id="svg1"
   x="0"
   y="0"
   version="1.0"
   _SVGFile__filename="oldscale/actions/circle.svg"
   width="60"
   height="60">
  <sodipodi:namedview
     inkscape:current-layer="svg1"
     inkscape:window-y="27"
     inkscape:window-x="0"
     inkscape:window-height="691"
     inkscape:window-width="1020"
     inkscape:cy="26.322299"
     inkscape:cx="59.538337"
     inkscape:zoom="4.6034679"
     inkscape:pageshadow="2"
     inkscape:pageopacity="0.0000000"
     borderopacity="1.0"
     bordercolor="#666666"
     pagecolor="#ffffff"
     id="base"
     showgrid="false"
     inkscape:window-maximized="0" />
  <defs
     id="defs3" />
  <metadata
     id="metadata5">
    <RDF
       id="RDF6">
      <Work
         about=""
         id="Work7">
        <title
           id="title8">Part of the Flat Icon Collection (Thu Aug 26 14:38:01 2004)</title>
        <description
           id="description10" />
        <subject
           id="subject11">
          <Bag
             id="Bag12">
            <li
               id="li13" />
          </Bag>
        </subject>
        <publisher
           id="publisher14">
          <Agent
             about=""
             id="Agent15">
            <title
               id="title16" />
          </Agent>
        </publisher>
        <creator
           id="creator17">
          <Agent
             about=""
             id="Agent18">
            <title
               id="title19">Danny Allen</title>
          </Agent>
        </creator>
        <rights
           id="rights21">
          <Agent
             about=""
             id="Agent22">
            <title
               id="title23">Danny Allen</title>
          </Agent>
        </rights>
        <date
           id="date25" />
        <format
           id="format26">image/svg+xml</format>
        <type
           id="type28"
           resource="http://purl.org/dc/dcmitype/StillImage" />
        <license
           id="license29"
           resource="http://creativecommons.org/licenses/LGPL/2.1/">
          <date
             id="date30" />
        </license>
        <language
           id="language31">en</language>
      </Work>
    </RDF>
    <rdf:RDF>
      <cc:Work
         rdf:about="">
        <dc:format>image/svg+xml</dc:format>
        <dc:type
           rdf:resource="http://purl.org/dc/dcmitype/StillImage" />
        <dc:title />
      </cc:Work>
    </rdf:RDF>
  </metadata>
  <path
     sodipodi:nodetypes="ccccc"
     id="path1345"
     d="M 14.376905,23.115041 L 42.623091,10.115041 L 50.623091,40.361227 L 9.3769054,50.361227 L 14.376905,23.115041 z "
     style="overflow:visible;display:inline;visibility:visible;marker-end:none;marker-mid:none;marker-start:none;marker:none;stroke-opacity:1.0000000;stroke-dashoffset:0.0000000;stroke-miterlimit:4.0000000;stroke-linejoin:round;stroke-linecap:round;stroke-width:10.000000;stroke:#ffffff;fill-rule:nonzero;fill-opacity:1.0000000;fill:none;color:#000000;stroke-dasharray:none" />
  <path
     id="path1321"
     d="M 20.773324,23.483174 C 20.773324,26.759078 18.114621,29.417782 14.838718,29.417782 C 11.562813,29.417782 8.9041098,26.759078 8.9041098,23.483174 C 8.9041098,20.207270 11.562813,17.548566 14.838718,17.548566 C 18.114621,17.548566 20.773324,20.207270 20.773324,23.483174 z "
     style="color:#000000;fill:none;fill-opacity:1.0000000;fill-rule:nonzero;stroke:#ffffff;stroke-width:8.1249990;stroke-linecap:round;stroke-linejoin:round;stroke-miterlimit:4.0000000;stroke-dashoffset:0.0000000;stroke-opacity:1.0000000;marker:none;marker-start:none;marker-mid:none;marker-end:none;visibility:visible;display:block;overflow:visible" />
  <path
     id="path2085"
     d="M 55.312502,39.992467 C 55.312502,43.268371 52.653799,45.927075 49.377896,45.927075 C 46.101991,45.927075 43.443288,43.268371 43.443288,39.992467 C 43.443288,36.716564 46.101991,34.057859 49.377896,34.057859 C 52.653799,34.057859 55.312502,36.716564 55.312502,39.992467 z "
     style="color:#000000;fill:none;fill-opacity:1.0000000;fill-rule:nonzero;stroke:#ffffff;stroke-width:8.1249990;stroke-linecap:round;stroke-linejoin:round;stroke-miterlimit:4.0000000;stroke-dashoffset:0.0000000;stroke-opacity:1.0000000;marker:none;marker-start:none;marker-mid:none;marker-end:none;visibility:visible;display:block;overflow:visible" />
  <path
     id="path1318"
     d="M 16.556712,49.116024 C 16.556712,52.391928 13.898009,55.050632 10.622106,55.050632 C 7.3462011,55.050632 4.6874979,52.391928 4.6874979,49.116024 C 4.6874979,45.840121 7.3462011,43.181416 10.622106,43.181416 C 13.898009,43.181416 16.556712,45.840121 16.556712,49.116024 z "
     style="color:#000000;fill:none;fill-opacity:1.0000000;fill-rule:nonzero;stroke:#ffffff;stroke-width:8.1249990;stroke-linecap:round;stroke-linejoin:round;stroke-miterlimit:4.0000000;stroke-dashoffset:0.0000000;stroke-opacity:1.0000000;marker:none;marker-start:none;marker-mid:none;marker-end:none;visibility:visible;display:block;overflow:visible" />
  <path
     id="path1317"
     d="M 48.361221,10.883977 C 48.361221,14.159881 45.702518,16.818585 42.426615,16.818585 C 39.150710,16.818585 36.492007,14.159881 36.492007,10.883977 C 36.492007,7.6080735 39.150710,4.9493688 42.426615,4.9493688 C 45.702518,4.9493688 48.361221,7.6080735 48.361221,10.883977 z "
     style="color:#000000;fill:none;fill-opacity:1.0000000;fill-rule:nonzero;stroke:#ffffff;stroke-width:8.1249990;stroke-linecap:round;stroke-linejoin:round;stroke-miterlimit:4.0000000;stroke-dashoffset:0.0000000;stroke-opacity:1.0000000;marker:none;marker-start:none;marker-mid:none;marker-end:none;visibility:visible;display:block;overflow:visible" />
  <path
     sodipodi:nodetypes="ccccc"
     id="rect2089"
     d="M 14.376905,23.115041 L 42.623091,10.115041 L 50.623091,40.361227 L 9.3769054,50.361227 L 14.376905,23.115041 z "
     style="color:#000000;fill:#ffffff;fill-opacity:1.0000000;fill-rule:nonzero;stroke:#000000;stroke-width:4.9999986;stroke-linecap:round;stroke-linejoin:round;stroke-miterlimit:4.0000000;stroke-dashoffset:0.0000000;stroke-opacity:1.0000000;marker:none;marker-start:none;marker-mid:none;marker-end:none;visibility:visible;display:inline;overflow:visible" />
  <path
     id="path1319"
     d="M 48.361221,10.883977 C 48.361221,14.159881 45.702518,16.818585 42.426615,16.818585 C 39.150710,16.818585 36.492007,14.159881 36.492007,10.883977 C 36.492007,7.6080735 39.150710,4.9493688 42.426615,4.9493688 C 45.702518,4.9493688 48.361221,7.6080735 48.361221,10.883977 z "
     style="color:#000000;fill:#ffffff;fill-opacity:1.0000000;fill-rule:nonzero;stroke:#000000;stroke-width:3.1249986;stroke-linecap:round;stroke-linejoin:round;stroke-miterlimit:4.0000000;stroke-dashoffset:0.0000000;stroke-opacity:1.0000000;marker:none;marker-start:none;marker-mid:none;marker-end:none;visibility:visible;display:block;overflow:visible" />
  <path
     id="path1320"
     d="M 16.556712,49.116024 C 16.556712,52.391928 13.898009,55.050632 10.622106,55.050632 C 7.3462011,55.050632 4.6874979,52.391928 4.6874979,49.116024 C 4.6874979,45.840121 7.3462011,43.181416 10.622106,43.181416 C 13.898009,43.181416 16.556712,45.840121 16.556712,49.116024 z "
     style="color:#000000;fill:#ffffff;fill-opacity:1.0000000;fill-rule:nonzero;stroke:#000000;stroke-width:3.1249986;stroke-linecap:round;stroke-linejoin:round;stroke-miterlimit:4.0000000;stroke-dashoffset:0.0000000;stroke-opacity:1.0000000;marker:none;marker-start:none;marker-mid:none;marker-end:none;visibility:visible;display:block;overflow:visible" />
  <path
     id="path2087"
     d="M 55.312502,39.992467 C 55.312502,43.268371 52.653799,45.927075 49.377896,45.927075 C 46.101991,45.927075 43.443288,43.268371 43.443288,39.992467 C 43.443288,36.716564 46.101991,34.057859 49.377896,34.057859 C 52.653799,34.057859 55.312502,36.716564 55.312502,39.992467 z "
     style="color:#000000;fill:#ffffff;fill-opacity:1.0000000;fill-rule:nonzero;stroke:#000000;stroke-width:3.1249986;stroke-linecap:round;stroke-linejoin:round;stroke-miterlimit:4.0000000;stroke-dashoffset:0.0000000;stroke-opacity:1.0000000;marker:none;marker-start:none;marker-mid:none;marker-end:none;visibility:visible;display:block;overflow:visible" />
  <path
     id="path1323"
     d="M 20.773324,23.483174 C 20.773324,26.759078 18.114621,29.417782 14.838718,29.417782 C 11.562813,29.417782 8.9041098,26.759078 8.9041098,23.483174 C 8.9041098,20.207270 11.562813,17.548566 14.838718,17.548566 C 18.114621,17.548566 20.773324,20.207270 20.773324,23.483174 z "
     style="color:#000000;fill:#ffffff;fill-opacity:1.0000000;fill-rule:nonzero;stroke:#000000;stroke-width:3.1249986;stroke-linecap:round;stroke-linejoin:round;stroke-miterlimit:4.0000000;stroke-dashoffset:0.0000000;stroke-opacity:1.0000000;marker:none;marker-start:none;marker-mid:none;marker-end:none;visibility:visible;display:block;overflow:visible" />
  <path
     id="path1330"
     d="M 38.454889,30.868910 C 38.454889,34.144814 35.796186,36.803518 32.520283,36.803518 C 29.244378,36.803518 26.585675,34.144814 26.585675,30.868910 C 26.585675,27.593006 29.244378,24.934302 32.520283,24.934302 C 35.796186,24.934302 38.454889,27.593006 38.454889,30.868910 z "
     style="color:#000000;fill:#ffffff;fill-opacity:1.0000000;fill-rule:nonzero;stroke:#000000;stroke-width:3.1249986;stroke-linecap:round;stroke-linejoin:round;stroke-miterlimit:4.0000000;stroke-dashoffset:0.0000000;stroke-opacity:1.0000000;marker:none;marker-start:none;marker-mid:none;marker-end:none;visibility:visible;display:block;overflow:visible" />
</svg>
